<?xml version="1.0" encoding="UTF-8" standalone="no"?>
<svg
   viewBox="1 1 191.83214 200.09496"
   version="1.1"
   id="svg1230"
   sodipodi:docname="chrome-extensions.svg"
   width="191.83214"
   height="200.09496"
   inkscape:version="1.1.1 (3bf5ae0d25, 2021-09-20)"
   xmlns:inkscape="http://www.inkscape.org/namespaces/inkscape"
   xmlns:sodipodi="http://sodipodi.sourceforge.net/DTD/sodipodi-0.dtd"
   xmlns:xlink="http://www.w3.org/1999/xlink"
   xmlns="http://www.w3.org/2000/svg"
   xmlns:svg="http://www.w3.org/2000/svg">
  <sodipodi:namedview
     id="namedview1232"
     pagecolor="#505050"
     bordercolor="#eeeeee"
     borderopacity="1"
     inkscape:pageshadow="0"
     inkscape:pageopacity="0"
     inkscape:pagecheckerboard="0"
     showgrid="false"
     inkscape:zoom="1.6854051"
     inkscape:cx="124.0058"
     inkscape:cy="140.61901"
     inkscape:window-width="2560"
     inkscape:window-height="1011"
     inkscape:window-x="1920"
     inkscape:window-y="32"
     inkscape:window-maximized="1"
     inkscape:current-layer="svg1230" />
  <style
     id="style1107"><![CDATA[.B{clip-path:url(#C)}.C{fill:#3e2723}.D{fill-opacity:.15}.E{fill-opacity:.2}]]></style>
  <defs
     id="defs1111">
    <circle
       id="A"
       cx="96"
       cy="96"
       r="88" />
    <path
       id="B"
       d="m 8,184 h 83.77 l 38.88,-38.88 V 116 H 61.35 L 8,24.48 Z" />
    <linearGradient
       inkscape:collect="always"
       xlink:href="#D"
       id="linearGradient2429"
       gradientUnits="userSpaceOnUse"
       x1="29.34"
       y1="75.019997"
       x2="81.839996"
       y2="44.349998" />
    <linearGradient
       inkscape:collect="always"
       xlink:href="#E"
       id="linearGradient2431"
       gradientUnits="userSpaceOnUse"
       x1="110.9"
       y1="164.5"
       x2="52.540001"
       y2="130.3" />
    <linearGradient
       inkscape:collect="always"
       xlink:href="#H"
       id="linearGradient2433"
       gradientUnits="userSpaceOnUse"
       x1="121.9"
       y1="49.799999"
       x2="136.60001"
       y2="114.1" />
    <linearGradient
       inkscape:collect="always"
       xlink:href="#H"
       id="linearGradient2435"
       gradientUnits="userSpaceOnUse"
       x1="121.9"
       y1="49.799999"
       x2="136.60001"
       y2="114.1" />
    <linearGradient
       inkscape:collect="always"
       xlink:href="#D"
       id="linearGradient2437"
       gradientUnits="userSpaceOnUse"
       x1="29.34"
       y1="75.019997"
       x2="81.839996"
       y2="44.349998" />
    <linearGradient
       inkscape:collect="always"
       xlink:href="#E"
       id="linearGradient2439"
       gradientUnits="userSpaceOnUse"
       x1="110.9"
       y1="164.5"
       x2="52.540001"
       y2="130.3" />
  </defs>
  <clipPath
     id="C">
    <use
       xlink:href="#A"
       id="use1113"
       x="0"
       y="0"
       width="100%"
       height="100%" />
  </clipPath>
  <g
     class="B"
     transform="translate(-7,-7)"
     clip-path="url(#C)"
     id="g1171">
    <path
       d="m 21.97,8 v 108 h 39.4 L 96,56 h 88 V 8 Z"
       fill="#db4437"
       id="path1116" />
    <linearGradient
       id="D"
       x1="29.34"
       x2="81.839996"
       y1="75.019997"
       y2="44.349998"
       gradientUnits="userSpaceOnUse">
      <stop
         stop-color="#a52714"
         stop-opacity=".6"
         offset="0"
         id="stop1118" />
      <stop
         stop-color="#a52714"
         stop-opacity="0"
         offset=".66"
         id="stop1120" />
    </linearGradient>
    <path
       d="m 21.97,8 v 108 h 39.4 L 96,56 h 88 V 8 Z"
       fill="url(#D)"
       id="path1123"
       style="fill:url(#linearGradient2429)" />
    <path
       d="m 62.3,115.6 -39.82,-68.3 -0.58,1 39.54,67.8 z"
       class="C D"
       id="path1125" />
    <use
       xlink:href="#B"
       fill="#0f9d58"
       id="use1127"
       x="0"
       y="0"
       width="100%"
       height="100%" />
    <linearGradient
       id="E"
       x1="110.9"
       x2="52.540001"
       y1="164.5"
       y2="130.3"
       gradientUnits="userSpaceOnUse">
      <stop
         stop-color="#055524"
         stop-opacity=".4"
         offset="0"
         id="stop1129" />
      <stop
         stop-color="#055524"
         stop-opacity="0"
         offset=".33"
         id="stop1131" />
    </linearGradient>
    <path
       d="m 8,184 h 83.77 l 38.88,-38.88 V 116 H 61.35 L 8,24.48 Z"
       fill="url(#E)"
       id="path1134"
       style="fill:url(#linearGradient2431)" />
    <path
       d="m 129.8,117.3 -0.83,-0.48 -38.4,67.15 h 1.15 l 38.1,-66.64 z"
       fill="#263238"
       class="D"
       id="path1136" />
    <defs
       id="defs1139">
      <path
         id="F"
         d="m 8,184 h 83.77 l 38.88,-38.88 V 116 H 61.35 L 8,24.48 Z" />
    </defs>
    <clipPath
       id="G">
      <use
         xlink:href="#F"
         id="use1141"
         x="0"
         y="0"
         width="100%"
         height="100%" />
    </clipPath>
    <g
       clip-path="url(#G)"
       id="g1153">
      <path
         d="m 96,56 34.65,60 -38.88,68 H 184 V 56 Z"
         fill="#ffcd40"
         id="path1144" />
      <linearGradient
         id="H"
         x1="121.9"
         x2="136.60001"
         y1="49.799999"
         y2="114.1"
         gradientUnits="userSpaceOnUse">
        <stop
           stop-color="#ea6100"
           stop-opacity=".3"
           offset="0"
           id="stop1146" />
        <stop
           stop-color="#ea6100"
           stop-opacity="0"
           offset=".66"
           id="stop1148" />
      </linearGradient>
      <path
         d="m 96,56 34.65,60 -38.88,68 H 184 V 56 Z"
         fill="url(#H)"
         id="path1151"
         style="fill:url(#linearGradient2433)" />
    </g>
    <path
       d="m 96,56 34.65,60 -38.88,68 H 184 V 56 Z"
       fill="#ffcd40"
       id="path1155" />
    <path
       d="m 96,56 34.65,60 -38.88,68 H 184 V 56 Z"
       fill="url(#H)"
       id="path1157"
       style="fill:url(#linearGradient2435)" />
    <defs
       id="defs1160">
      <path
         id="I"
         d="m 96,56 34.65,60 -38.88,68 H 184 V 56 Z" />
    </defs>
    <clipPath
       id="J">
      <use
         xlink:href="#I"
         id="use1162"
         x="0"
         y="0"
         width="100%"
         height="100%" />
    </clipPath>
    <g
       clip-path="url(#J)"
       id="g1169">
      <path
         d="m 21.97,8 v 108 h 39.4 L 96,56 h 88 V 8 Z"
         fill="#db4437"
         id="path1165" />
      <path
         d="m 21.97,8 v 108 h 39.4 L 96,56 h 88 V 8 Z"
         fill="url(#D)"
         id="path1167"
         style="fill:url(#linearGradient2437)" />
    </g>
  </g>
  <radialGradient
     id="K"
     cx="668.20001"
     cy="55.950001"
     r="84.080002"
     gradientTransform="translate(-576)"
     gradientUnits="userSpaceOnUse">
    <stop
       stop-color="#3e2723"
       stop-opacity=".2"
       offset="0"
       id="stop1173" />
    <stop
       stop-color="#3e2723"
       stop-opacity="0"
       offset="1"
       id="stop1175" />
  </radialGradient>
  <g
     transform="translate(-7,-7)"
     id="g1194">
    <path
       d="M 96,56 V 76.95 L 174.4,56 Z"
       fill="url(#K)"
       class="B"
       clip-path="url(#C)"
       id="path1178"
       style="fill:url(#K)" />
    <g
       class="B"
       clip-path="url(#C)"
       id="g1192">
      <defs
         id="defs1181">
        <path
           id="L"
           d="M 21.97,8 V 48.34 L 61.36,116 96,56 h 88 V 8 Z" />
      </defs>
      <clipPath
         id="M">
        <use
           xlink:href="#L"
           id="use1183"
           x="0"
           y="0"
           width="100%"
           height="100%" />
      </clipPath>
      <g
         clip-path="url(#M)"
         id="g1190">
        <use
           xlink:href="#B"
           fill="#0f9d58"
           id="use1186"
           x="0"
           y="0"
           width="100%"
           height="100%" />
        <path
           d="m 8,184 h 83.77 l 38.88,-38.88 V 116 H 61.35 L 8,24.48 Z"
           fill="url(#E)"
           id="path1188"
           style="fill:url(#linearGradient2439)" />
      </g>
    </g>
  </g>
  <radialGradient
     id="N"
     cx="597.90002"
     cy="48.52"
     r="78.040001"
     gradientTransform="translate(-576)"
     gradientUnits="userSpaceOnUse">
    <stop
       stop-color="#3e2723"
       stop-opacity=".2"
       offset="0"
       id="stop1196" />
    <stop
       stop-color="#3e2723"
       stop-opacity="0"
       offset="1"
       id="stop1198" />
  </radialGradient>
  <path
     transform="translate(-7,-7)"
     d="M 21.97,48.45 79.22,105.69 61.36,116 Z"
     fill="url(#N)"
     class="B"
     clip-path="url(#C)"
     id="path1201"
     style="fill:url(#N)" />
  <radialGradient
     id="O"
     cx="671.79999"
     cy="96.139999"
     r="87.870003"
     gradientTransform="translate(-576)"
     gradientUnits="userSpaceOnUse">
    <stop
       stop-color="#263238"
       stop-opacity=".2"
       offset="0"
       id="stop1203" />
    <stop
       stop-color="#263238"
       stop-opacity="0"
       offset="1"
       id="stop1205" />
  </radialGradient>
  <g
     transform="translate(-7,-7)"
     id="g1228">
    <path
       d="m 91.83,183.9 20.96,-78.2 17.86,10.3 z"
       fill="url(#O)"
       class="B"
       clip-path="url(#C)"
       id="path1208"
       style="fill:url(#O)" />
    <g
       class="B"
       clip-path="url(#C)"
       id="g1226">
      <circle
         cx="96"
         cy="96"
         r="40"
         fill="#f1f1f1"
         id="circle1210" />
      <circle
         cx="96"
         cy="96"
         r="32"
         fill="#4285f4"
         id="circle1212" />
      <path
         d="M 96,55 C 73.9,55 56,72.9 56,95 v 1 C 56,73.9 73.9,56 96,56 h 88 v -1 z"
         class="C E"
         id="path1214" />
      <path
         d="m 130.6,116 c -6.92,11.94 -19.8,20 -34.6,20 -14.8,0 -27.7,-8.06 -34.6,-20 H 61.36 L 8,24.48 v 1 L 61.4,117 c 6.92,11.94 19.8,20 34.6,20 14.8,0 27.68,-8.05 34.6,-20 h 0.05 v -1 h -0.06 z"
         fill="#ffffff"
         fill-opacity="0.1"
         id="path1216" />
      <path
         d="m 97,56 c -0.17,0 -0.33,0.02 -0.5,0.03 21.86,0.27 39.5,18.05 39.5,39.97 0,21.92 -17.64,39.7 -39.5,39.97 0.17,0 0.33,0.03 0.5,0.03 22.1,0 40,-17.9 40,-40 0,-22.1 -17.9,-40 -40,-40 z"
         opacity="0.1"
         class="C"
         id="path1218" />
      <path
         d="m 131,117.3 c 3.4,-5.88 5.37,-12.68 5.37,-19.96 A 39.87,39.87 0 0 0 134.5,85.25 c 0.95,3.42 1.5,7 1.5,10.73 0,7.28 -1.97,14.08 -5.37,19.96 l 0.02,0.04 -38.88,68 h 1.16 z"
         fill="#ffffff"
         class="E"
         id="path1220" />
      <path
         d="m 96,9 c 48.43,0 87.72,39.13 88,87.5 0,-0.17 0.01,-0.33 0.01,-0.5 0,-48.6 -39.4,-88 -88,-88 C 47.41,8 8,47.4 8,96 8,96.17 8.01,96.33 8.01,96.5 8.28,48.13 47.57,9 96,9 Z"
         fill="#ffffff"
         class="E"
         id="path1222" />
      <path
         d="m 96,183 c 48.43,0 87.72,-39.13 88,-87.5 0,0.17 0.01,0.33 0.01,0.5 0,48.6 -39.4,88 -88,88 C 47.41,184 8,144.6 8,96 c 0,-0.17 0.01,-0.33 0.01,-0.5 0.27,48.37 39.56,87.5 88,87.5 z"
         class="C D"
         id="path1224" />
    </g>
  </g>
  <path
     style="fill:#8e8ebc;fill-opacity:1;stroke-width:0.133605"
     d="m 113.5378,200.99239 c -0.14697,-0.0618 -0.38745,-0.24607 -0.53442,-0.4094 -0.26231,-0.29152 -0.26787,-0.51127 -0.30347,-11.99613 -0.039,-12.57834 -0.0515,-12.3094 0.63605,-13.65371 0.39274,-0.76788 1.25936,-1.65576 2.02482,-2.07448 0.61807,-0.3381 0.88835,-0.39833 1.98475,-0.44224 2.73891,-0.1097 4.02415,0.93935 5.34404,4.36192 0.52654,1.36537 0.72181,1.49136 1.79044,1.15523 1.7105,-0.53802 3.07009,-2.90642 3.7105,-6.4637 0.78581,-4.3649 -0.0679,-8.76118 -2.1636,-11.14205 -0.54827,-0.62286 -1.40083,-1.03043 -2.15548,-1.03043 -0.45885,0 -0.61927,0.23396 -1.19095,1.73686 -0.84529,2.2222 -1.7975,3.28434 -3.37358,3.76306 -1.15688,0.35139 -2.5046,0.29303 -3.53391,-0.15303 -0.85929,-0.37238 -1.87113,-1.43465 -2.36901,-2.48708 -0.73842,-1.5609 -0.74227,-1.63544 -0.70348,-13.61434 l 0.0357,-11.01701 0.37037,-0.37041 0.37037,-0.37042 11.38683,-0.0668 11.38683,-0.0668 0.68572,-0.31031 c 1.02631,-0.46443 1.41855,-0.93861 1.48152,-1.79101 0.0889,-1.20319 -0.48293,-1.92505 -1.94118,-2.45055 -1.21064,-0.43627 -2.36749,-1.01221 -2.74804,-1.36812 -1.62783,-1.52243 -1.22242,-4.72985 0.83295,-6.58985 1.32653,-1.20044 3.20398,-2.16176 5.33004,-2.72917 1.0764,-0.28727 3.39041,-0.58743 4.55254,-0.59052 1.26097,-0.003 4.2706,0.45642 5.74965,0.87837 2.19854,0.62722 4.51981,1.9671 5.52906,3.19149 0.8933,1.08373 1.46116,3.16714 1.17645,4.31625 -0.3445,1.39044 -1.09752,2.05175 -3.3144,2.91072 -0.75918,0.29416 -1.47568,0.67477 -1.75898,0.9344 -0.46654,0.42755 -0.47801,0.46201 -0.47801,1.43633 0,1.13007 0.1417,1.37873 1.06884,1.87558 0.53175,0.28496 0.59243,0.28672 12.18776,0.35319 l 11.65335,0.0668 0.30426,0.30425 0.30426,0.30424 0.0703,11.38615 c 0.048,7.76879 0.11694,11.51598 0.21714,11.79478 0.47612,1.3248 0.98764,1.82135 1.94942,1.89238 1.20206,0.0888 1.9292,-0.48846 2.44549,-1.94134 0.76343,-2.1484 1.61563,-3.2825 2.7138,-3.61152 1.38387,-0.41462 3.55817,0.11739 4.70917,1.15224 2.317,2.08317 3.86043,6.27721 3.86043,10.49006 0,1.21282 -0.46976,4.24493 -0.88098,5.68635 -0.63105,2.21201 -2.05224,4.6832 -3.19428,5.55427 -0.65396,0.4988 -1.74334,0.95931 -2.72727,1.15288 -1.48345,0.29185 -2.90943,-0.26379 -3.61759,-1.40962 -0.16707,-0.27032 -0.56351,-1.12884 -0.88097,-1.90782 -0.75838,-1.86085 -1.09659,-2.20626 -2.22235,-2.26965 -1.03001,-0.058 -1.55139,0.21907 -2.0027,1.06426 L 177,177 l -0.0668,11.65402 -0.0668,11.65402 -0.37041,0.37039 -0.37041,0.37039 -10.98598,0.0377 c -7.61799,0.0262 -11.26035,-0.008 -11.88095,-0.11112 -2.00479,-0.33347 -3.80506,-1.62569 -4.37594,-3.14104 -0.25095,-0.66613 -0.29007,-0.98702 -0.24337,-1.99617 0.11779,-2.5453 1.14051,-3.67035 4.48876,-4.93787 1.22342,-0.46314 1.34335,-0.66877 1.02629,-1.75972 -0.29488,-1.01467 -1.03647,-1.71334 -2.67286,-2.51819 -1.33395,-0.6561 -2.62299,-1.01454 -4.7804,-1.32927 -1.78974,-0.26109 -2.73907,-0.26328 -4.41815,-0.0102 -1.62395,0.24477 -2.80198,0.60173 -4.05157,1.22767 -1.39234,0.69744 -2.21544,1.46332 -2.49159,2.31838 -0.42691,1.32185 -0.38013,1.38748 1.51283,2.12257 2.08064,0.80797 2.9594,1.49767 3.58758,2.81576 0.30497,0.6399 0.35044,0.90741 0.35198,2.07087 0.001,1.11371 -0.0494,1.44721 -0.30543,2.00407 -0.79138,1.72087 -2.8033,2.91015 -5.18605,3.06556 -1.89546,0.12362 -21.88875,0.19986 -22.16289,0.0845 z"
     id="path1321" />
</svg>
